# Blender v2.91.2 OBJ File: 'Axis.blend'
# www.blender.org
mtllib z-axis.mtl
o Cylinder
v -0.100000 0.000000 -0.000000
v -0.100000 -0.000000 2.000000
v -0.070711 0.070711 -0.000000
v -0.070711 0.070710 2.000000
v 0.000000 0.100000 0.000000
v -0.000000 0.100000 2.000000
v 0.070711 0.070711 0.000000
v 0.070710 0.070710 2.000000
v 0.100000 -0.000000 0.000000
v 0.100000 -0.000000 2.000000
v 0.070711 -0.070711 0.000000
v 0.070710 -0.070711 2.000000
v -0.000000 -0.100000 -0.000000
v -0.000000 -0.100000 2.000000
v -0.070711 -0.070711 -0.000000
v -0.070711 -0.070711 2.000000
vt 1.000000 1.000000
vt 0.875000 0.500000
vt 1.000000 0.500000
vt 0.875000 1.000000
vt 0.750000 0.500000
vt 0.750000 1.000000
vt 0.625000 0.500000
vt 0.625000 1.000000
vt 0.500000 0.500000
vt 0.500000 1.000000
vt 0.375000 0.500000
vt 0.375000 1.000000
vt 0.250000 0.500000
vt 0.250000 0.010000
vt 0.419706 0.080294
vt 0.490000 0.250000
vt 0.250000 1.000000
vt 0.125000 0.500000
vt 0.125000 1.000000
vt 0.000000 0.500000
vt 0.580294 0.419706
vt 0.919706 0.419706
vt 0.919706 0.080294
vt 0.419706 0.419706
vt 0.250000 0.490000
vt 0.080294 0.419706
vt 0.010000 0.250000
vt 0.080294 0.080294
vt 0.000000 1.000000
vt 0.750000 0.490000
vt 0.990000 0.250000
vt 0.750000 0.010000
vt 0.580294 0.080294
vt 0.510000 0.250000
vn -0.9239 0.3827 -0.0000
vn -0.3827 0.9239 0.0000
vn 0.3827 0.9239 0.0000
vn 0.9239 0.3827 0.0000
vn 0.9239 -0.3827 0.0000
vn 0.3827 -0.9239 -0.0000
vn 0.0000 0.0000 1.0000
vn -0.3827 -0.9239 -0.0000
vn -0.9239 -0.3827 -0.0000
vn 0.0000 0.0000 -1.0000
usemtl Color
s off
f 2/1/1 3/2/1 1/3/1
f 4/4/2 5/5/2 3/2/2
f 6/6/3 7/7/3 5/5/3
f 8/8/4 9/9/4 7/7/4
f 10/10/5 11/11/5 9/9/5
f 12/12/6 13/13/6 11/11/6
f 10/14/7 8/15/7 6/16/7
f 14/17/8 15/18/8 13/13/8
f 16/19/9 1/20/9 15/18/9
f 15/21/10 3/22/10 7/23/10
f 2/1/1 4/4/1 3/2/1
f 4/4/2 6/6/2 5/5/2
f 6/6/3 8/8/3 7/7/3
f 8/8/4 10/10/4 9/9/4
f 10/10/5 12/12/5 11/11/5
f 12/12/6 14/17/6 13/13/6
f 6/16/7 4/24/7 2/25/7
f 2/25/7 16/26/7 6/16/7
f 16/26/7 14/27/7 6/16/7
f 14/27/7 12/28/7 6/16/7
f 12/28/7 10/14/7 6/16/7
f 14/17/8 16/19/8 15/18/8
f 16/19/9 2/29/9 1/20/9
f 15/21/10 1/30/10 3/22/10
f 3/22/10 5/31/10 7/23/10
f 7/23/10 9/32/10 15/21/10
f 9/32/10 11/33/10 15/21/10
f 11/33/10 13/34/10 15/21/10
o Cone
v -0.250000 -0.000000 1.920000
v -0.176777 0.176776 1.920000
v -0.000000 0.250000 1.920000
v 0.176776 0.176776 1.920000
v 0.250000 -0.000000 1.920000
v 0.176776 -0.176777 1.920000
v -0.000000 -0.250000 1.920000
v -0.176777 -0.176777 1.920000
v -0.000001 -0.000000 2.720000
vt 0.250000 0.490000
vt 0.250000 0.250000
vt 0.419706 0.419706
vt 0.490000 0.250000
vt 0.419706 0.080294
vt 0.250000 0.010000
vt 0.080294 0.080294
vt 0.010000 0.250000
vt 0.919706 0.080294
vt 0.580294 0.080294
vt 0.580294 0.419706
vt 0.080294 0.419706
vt 0.750000 0.490000
vt 0.919706 0.419706
vt 0.990000 0.250000
vt 0.750000 0.010000
vt 0.510000 0.250000
vn -0.8876 0.3677 0.2774
vn -0.3677 0.8876 0.2774
vn 0.3677 0.8876 0.2774
vn 0.8876 0.3677 0.2774
vn 0.8876 -0.3677 0.2774
vn 0.3677 -0.8876 0.2774
vn 0.0000 0.0000 -1.0000
vn -0.3677 -0.8876 0.2774
vn -0.8876 -0.3677 0.2774
usemtl Color
s off
f 17/35/11 25/36/11 18/37/11
f 18/37/12 25/36/12 19/38/12
f 19/38/13 25/36/13 20/39/13
f 20/39/14 25/36/14 21/40/14
f 21/40/15 25/36/15 22/41/15
f 22/41/16 25/36/16 23/42/16
f 20/43/17 22/44/17 24/45/17
f 23/42/18 25/36/18 24/46/18
f 24/46/19 25/36/19 17/35/19
f 24/45/17 17/47/17 18/48/17
f 18/48/17 19/49/17 20/43/17
f 20/43/17 21/50/17 22/44/17
f 22/44/17 23/51/17 24/45/17
f 24/45/17 18/48/17 20/43/17
